# xmcd
#
# Track frame offsets:
#	150
#	3662
#	16230
#	32099
#	46851
#	71806
#	86298
#	104221
#	115934
#	133305
#	151055
#	162991
#	176143
#	197004
#
# Disc length: 2802 seconds
#
# Revision: 0
# Processed by: cddbd v1.5.2PL0 Copyright (c) Steve Scherf et al.
# Submitted via: dBpowerAMP V4.0
#
DISCID=bb0af00e
DTITLE=Van Ghost - Melodies for Lovers
DYEAR=2009
DGENRE=Country Western
TTITLE0=It All Leads Here
TTITLE1=Summer Promise
TTITLE2=Do It For You
TTITLE3=Everday Music
TTITLE4=Wednesday
TTITLE5=Hurry Up
TTITLE6=On the Way Home
TTITLE7=Through the Years
TTITLE8=So Far Away
TTITLE9=Satisfied
TTITLE10=Nothing to Lose
TTITLE11=Lessons
TTITLE12=I Found Out
TTITLE13=Coliseum
EXTD=
EXTT0=
EXTT1=
EXTT2=
EXTT3=
EXTT4=
EXTT5=
EXTT6=
EXTT7=
EXTT8=
EXTT9=
EXTT10=
EXTT11=
EXTT12=
EXTT13=
PLAYORDER=
